# xmcd
#
# Track frame offsets:
#  150
#  26698
#  58127
#  87173
#  115227
#  133453
#
# Disc length: 2294 seconds
#
# Revision: 0
# Processed by: cddbd v1.4PL0 Copyright (c) Steve Scherf et al.
# Submitted via: AltoMP3_Maker 3.0
#
DISCID=5308f406
DTITLE=Joe Starkey - Six Plays
DYEAR=1900
DGENRE=
TTITLE0=Get With A Real Man
TTITLE1=Gotta Get With You Girl
TTITLE2=Sleep Pretty Child
TTITLE3=Everybody's Gotta Jive
TTITLE4=Don't Be Afraid
TTITLE5=Get With A Real Man (reprised)
EXTD=
EXTT0=
EXTT1=
EXTT2=
EXTT3=
EXTT4=
EXTT5=
PLAYORDER=
